<svg id="Layer_1_1_" enable-background="new 0 0 256 256" height="512" viewBox="0 0 256 256" width="512" xmlns="http://www.w3.org/2000/svg"><path d="m79.299 107.004 20.346-4.611-5.195-16.168-19.913 9.091z" fill="#f5d3a6"/><path d="m173.376 151.615c-.001.011-.002.022-.002.033l-2.174 74.556c-.123 1.105-.846 2.051-1.88 2.459l-31.131 12.395c-1.328.571-2.188 1.878-2.188 3.323 0 1.998 1.62 3.618 3.618 3.618h40.309c4.848 0 9.178.966 10.833-3.592l-2.521-15.507c-.156-.587-.133-1.199.07-1.772 2.143-6.05 10.69-47.726 10.69-54.128 0-3.598-.682-13.272-1.41-21.826h-24.178c-.014.147-.02.294-.036.441z" fill="#f5d3a6"/><path d="m141.827 43.404c-6.135 3.849-34.656 21.638-45.468 26.552-10.165 4.62-13.455 11.419-13.909 15.238l2.061 7.315c2.043 4.237 5.301 9.588 11.427 13.767l25.638 8.483c2.128.215 7.517.642 9.429.531 6.521-.377 12.278-4.386 15.004-10.321 1.069-2.327 2.624-4.393 4.567-6.061 2.853-2.45 7.276-6.261 10.945-9.473 1.576-1.38 4.236-5.643 7.066-10.588l-24.647-36.931c-.68.532-1.382 1.03-2.113 1.488z" fill="#7f8b4b"/><path d="m162.333 27.333-18.266 14.487c-.042.033-.086.063-.128.096l24.647 36.931c3.099-5.414 6.403-11.646 8.717-15.811z" fill="#f5d3a6"/><path d="m170.182 46.053c-.471 9.219-2.326 18.299-5.507 26.935l3.911 5.86c3.099-5.414 6.403-11.646 8.717-15.811z" fill="#f0c792"/><path d="m219.935 61.722c2.691-8.352 3.882-17.114 3.516-25.881l-.012-.298c-.285-6.844-2.991-13.296-7.628-18.25-.215-.23-.43-.46-.645-.689-4.582-4.896-10.795-7.949-17.47-8.584l-.265-.025c-6.768-.645-13.49 1.137-19.006 5.022-7.11 5.007-16.091 14.318-16.091 14.318l14.031 35.079.012-.043c-1.631 7.399-3.019 15.461-3.377 22.629-.747 14.944-2.092 35.932-2.725 45.587-.226 3.455.324 6.912 1.61 10.127 1.334 3.335 1.847 6.912 1.526 10.461h24.178c-.56-6.58-1.148-12.498-1.474-14.475-.077-.465-.04-.935.105-1.383z" fill="#514654"/><path d="m173.411 151.174c3.703-10.237 5.534-21.057 5.364-31.942-.105-6.767-.037-13.756.546-20.414 1.322-15.092 7.489-51.992 7.489-51.992l-10.474 15.514.029.072.012-.043c-1.631 7.401-3.019 15.463-3.377 22.631-.747 14.944-2.092 35.932-2.725 45.587-.226 3.455.324 6.912 1.61 10.127 1.335 3.335 1.847 6.912 1.526 10.46z" fill="#403742"/><path d="m151 91.107c-4.071 3.107-8.25 12.857-10.286 16.071s-9 7.5-12.643 6.964c-3.071-.452-29.221-9.51-37.349-12.341 1.463 1.565 3.177 3.085 5.214 4.475l25.638 8.483c2.128.215 7.517.642 9.429.531 6.521-.377 12.278-4.386 15.004-10.321 1.069-2.327 2.624-4.393 4.567-6.061 2.853-2.45 7.276-6.261 10.945-9.473 1.576-1.38 4.236-5.643 7.066-10.588l-3.911-5.86c.002 0-9.603 15.013-13.674 18.12z" fill="#727d43"/><path d="m108.42 79.642c-3.976-.398-7.865 1.344-10.215 4.576l-1.612 2.216c-1.667 2.292-2.407 5.13-2.072 7.944l7.656 64.329.724 4.031c.638 3.549.839 7.163.599 10.761-.331 4.97.115 9.96 1.323 14.792l10.583 42.331c.346 1.383-.33 2.819-1.616 3.434l-19.494 9.323c-.792.379-1.296 1.179-1.296 2.056 0 1.364 1.191 2.423 2.546 2.264l24.149-2.841c4.345-.511 7.498-3.559 8.305-7.859v-9l-7.732-136.284c-.171-3.017-1.549-5.838-3.823-7.827l-1.737-1.52c-1.762-1.54-3.959-2.493-6.288-2.726z" fill="#f5d3a6"/><path d="m82.023 84.198c-1.833-4.19-4.324-8.129-6.602-11.287-5.669-7.859-18.482-12.424-27.839-9.887-8.101 2.196-15.105 8.966-18.495 16.452-2.169 4.789-1.896 11.883.658 16.506.484.876 1.078 1.837 1.736 2.836.013-.011 22.938-18.312 50.542-14.62z" fill="#704c0f"/><path d="m82.023 84.198c-27.603-3.692-50.529 14.609-50.543 14.62 3.775 5.737 9.703 12.775 9.703 12.775l3.402 9.061 7.047-2.646s7.429 7.549 11.834 7.043c8.81-1.011 15.004-11.573 16.6-14.244 2.065-3.458 3.238-7.618 4.196-11.513 1.182-4.802-.064-10.125-2.239-15.096z" fill="#f5d3a6"/><path d="m48.284 62.87c6.907-1.59 15.488.49 21.712 4.824 2.857-3.299 3.24-8.202 1.66-12.602-2.33-6.488-9.479-9.858-15.967-7.528-6.197 2.226-9.195 9.052-7.452 15.295z" fill="#704c0f"/><g fill="#5e400d"><path d="m71.656 55.092c-.327-.91-.757-1.752-1.259-2.532.01.11.02.22.028.33.384 5.021-4.621 8.625-9.37 6.951-4.248-1.497-8.792-2.313-13.178-2.331-.236 1.751-.136 3.573.36 5.349l.047.01c6.907-1.59 15.488.49 21.712 4.824 2.856-3.297 3.24-8.201 1.66-12.601z"/><path d="m38.92 76.375c2.23-6.573 10.967-11.825 15.149-14.019-.724-.026-1.441-.022-2.151.015-4.626 2.604-11.851 7.51-13.946 13.683-2.129 6.275-.266 13.641 1.166 17.758.294-.167.592-.336.901-.507-1.37-4.036-3.104-11.082-1.119-16.93z"/><path d="m50.315 78.183c2.693-6.121 8.48-12.212 10.939-14.635-.374-.11-.749-.206-1.125-.302-2.699 2.694-8.084 8.522-10.729 14.535-1.895 4.307-1.952 8.587-1.571 11.721.322-.137.65-.272.979-.407-.324-2.986-.225-6.974 1.507-10.912z"/><path d="m67.83 66.345c-.529-.301-1.067-.59-1.617-.861 1.334 2.278 2.813 5.712 4.051 10.847.653 2.711 1.139 5.192 1.509 7.444.334-.016.672-.02 1.008-.031-.377-2.311-.873-4.86-1.544-7.648-1.036-4.298-2.241-7.447-3.407-9.751z"/></g></svg>